<mxfile host="app.diagrams.net" modified="2024-06-18T01:32:12.733Z" agent="Mozilla/5.0 (Windows NT 10.0; Win64; x64) AppleWebKit/537.36 (KHTML, like Gecko) Chrome/126.0.0.0 Safari/537.36" version="24.4.9" etag="u9l5VsI1KCuruTw9DOIo" type="github">
  <diagram name="PÃ¡gina-1" id="TDOTxmgoj2yjVok589Dw">
    <mxGraphModel>
      <root>
        <mxCell id="0" />
        <mxCell id="1" parent="0" />
      </root>
    </mxGraphModel>
  </diagram>
</mxfile>
